
        <svg xmlns="http://www.w3.org/2000/svg" xmlns:xlink="http://www.w3.org/1999/xlink" version="1.1" width="3307.6923076923076" 
        height="1179.2442727735508" viewBox="0 0 3307.6923076923076 1179.2442727735508">
			<rect fill="#ffffff" width="3307.6923076923076" height="1179.2442727735508"/>
			<g transform="scale(15.384615384615385) translate(10, 10)">
				<defs id="SvgjsDefs1354"></defs><g id="SvgjsG1355" featureKey="v37d4h-0" transform="matrix(1.421188602473363,0,0,1.421188602473363,12.467700135820962,2.5193799185074184)" fill="#0081c6"><polygon xmlns="http://www.w3.org/2000/svg" class="st0" points="5.3,22.4 25.8,32.2 44,22.4 24.6,12.3 " style="fill: none; stroke: #0081c6; stroke-miterlimit: 10;"></polygon><path xmlns="http://www.w3.org/2000/svg" class="st0" d="M14.5,27v7c0,0,9.5,9.2,20.9,0" style="fill: none; stroke: #0081c6; stroke-miterlimit: 10;"></path><line xmlns="http://www.w3.org/2000/svg" class="st0" x1="41.5" y1="24" x2="41.5" y2="29" style="fill: none; stroke: #0081c6; stroke-miterlimit: 10;"></line><circle xmlns="http://www.w3.org/2000/svg" class="st0" cx="41.2" cy="30.4" r="1.7" style="fill: none; stroke: #0081c6; stroke-miterlimit: 10;"></circle></g><g id="SvgjsG1356" featureKey="UxBHKT-0" transform="matrix(1.0631512076927918,0,0,1.0631512076927918,94.0856898194382,24.811821984791177)" fill="#48466d"><path d="M4.19 19.74 q-1.37 -0.54 -2.35 -1.83 t-0.98 -3.37 t0.99 -3.36 t2.37 -1.82 t2.62 -0.54 q1.44 0 2.74 0.64 t2.13 1.88 t0.87 2.94 q0 0.52 -0.02 0.9 t-0.04 0.48 l-8.68 0 q0.24 1.16 1.2 1.58 t1.8 0.42 q1.08 0 1.72 -0.39 t1.1 -0.89 l2.32 1.34 q-1.88 2.56 -5.14 2.56 q-1.28 0 -2.65 -0.54 z M4.8 12.05 q-0.78 0.61 -0.88 1.49 l5.5 0 q-0.06 -0.52 -0.4 -1 t-0.91 -0.79 t-1.29 -0.31 q-1.24 0 -2.02 0.61 z M23.340000000000003 18.9 q-0.38 0.52 -1.31 0.93 t-2.03 0.41 q-1.7 0 -2.95 -0.76 t-1.91 -2.07 t-0.66 -2.91 t0.66 -2.91 t1.91 -2.07 t2.95 -0.76 q1.14 0 2.01 0.39 t1.33 0.99 l0 -5.26 l2.96 0 l0 15.12 l-2.96 0 l0 -1.1 z M22.64 12.25 q-0.82 -0.87 -2.2 -0.87 q-1.4 0 -2.21 0.87 t-0.81 2.25 q0 1.34 0.83 2.22 t2.19 0.88 q1.4 0 2.21 -0.83 t0.81 -2.27 q0 -1.38 -0.82 -2.25 z M29.240000000000002 15.54 l0 -6.5 l3.02 0 l0 6.5 q0 1.18 0.59 1.69 t1.55 0.51 q0.84 0 1.5 -0.65 t0.6 -2.23 l0 -5.82 l3 0 l0 10.96 l-3 0 l0 -0.94 q-0.54 0.56 -1.31 0.87 t-1.63 0.31 q-4.32 0 -4.32 -4.7 z M41.14000000000001 9.04 l3.18 0 l1.84 4.88 l2.66 -5.48 l2.7 5.5 l1.9 -4.9 l3.16 0 l-4.72 11.42 l-3.04 -5.84 l-3 5.84 z M66.28000000000002 18.9 q-0.38 0.52 -1.31 0.93 t-2.03 0.41 q-1.7 0 -2.95 -0.76 t-1.91 -2.07 t-0.66 -2.91 t0.66 -2.91 t1.91 -2.07 t2.95 -0.76 q1.14 0 2.01 0.39 t1.33 0.99 l0 -1.14 l2.96 0 l0 11 l-2.96 0 l0 -1.1 z M65.58000000000001 12.25 q-0.82 -0.87 -2.2 -0.87 q-1.4 0 -2.21 0.87 t-0.81 2.25 q0 1.34 0.83 2.22 t2.19 0.88 q1.4 0 2.21 -0.83 t0.81 -2.27 q0 -1.38 -0.82 -2.25 z M70.80000000000001 9.04 l3.32 0 l2.56 5.38 l2.56 -5.38 l3.34 0 l-5.9 11.44 z M86.53 19.74 q-1.37 -0.54 -2.35 -1.83 t-0.98 -3.37 t0.99 -3.36 t2.37 -1.82 t2.62 -0.54 q1.44 0 2.74 0.64 t2.13 1.88 t0.87 2.94 q0 0.52 -0.02 0.9 t-0.04 0.48 l-8.68 0 q0.24 1.16 1.2 1.58 t1.8 0.42 q1.08 0 1.72 -0.39 t1.1 -0.89 l2.32 1.34 q-1.88 2.56 -5.14 2.56 q-1.28 0 -2.65 -0.54 z M87.14 12.05 q-0.78 0.61 -0.88 1.49 l5.5 0 q-0.06 -0.52 -0.4 -1 t-0.91 -0.79 t-1.29 -0.31 q-1.24 0 -2.02 0.61 z"></path></g>
			</g>
		</svg>
	